<svg height="512" viewBox="0 0 64 64" width="512" xmlns="http://www.w3.org/2000/svg"><g id="_05_Location" data-name="05 Location"><path d="m32 3a22.421 22.421 0 0 0 -22.5 22.341c0 9.9 14.482 27.879 20.209 34.6a3.013 3.013 0 0 0 4.582 0c5.727-6.721 20.209-24.702 20.209-34.6a22.421 22.421 0 0 0 -22.5-22.341zm0 29.787a7.447 7.447 0 1 1 7.5-7.446 7.473 7.473 0 0 1 -7.5 7.446z" fill="#4370ff"/><path d="m32 1a24.465 24.465 0 0 0 -24.411 22.341h4.011a20.507 20.507 0 0 1 40.9 2c0 9.412-15.1 27.873-19.731 33.307a1.014 1.014 0 0 1 -1.538 0c-4.32-5.073-17.758-21.488-19.531-31.307h-4.047c1.471 10.2 13.3 25.406 20.534 33.9a5.013 5.013 0 0 0 7.626 0c7.726-9.07 20.687-25.794 20.687-35.901a24.448 24.448 0 0 0 -24.5-24.34z"/><path d="m32 19.894a5.505 5.505 0 0 1 5.111 3.447h4.17a9.447 9.447 0 1 0 0 4h-4.17a5.487 5.487 0 1 1 -5.111-7.447z"/></g></svg>